<svg width="512" height="512" viewBox="0 0 512 512" fill="none" xmlns="http://www.w3.org/2000/svg">
<rect x="64" y="64" width="384" height="384" rx="32" fill="#50005E"/>
<rect x="214.049" y="256" width="60" height="60" rx="16" transform="rotate(-45 214.049 256)" stroke="white" stroke-width="16"/>
<path d="M250.216 140.637C286.059 117.582 318.478 122.841 353.915 158.279C403.907 208.271 374.339 257.966 351.087 284.851C308.552 334.031 287.087 329.039 251.525 293.477L214.049 256" stroke="white" stroke-width="16"/>
<path d="M141.112 262.259C118.057 226.416 123.317 193.997 158.754 158.56C208.746 108.568 258.441 138.136 285.326 161.388C334.506 203.923 329.514 225.388 293.952 260.95L256.475 298.426" stroke="white" stroke-width="16"/>
<path d="M262.734 371.363C226.891 394.418 194.473 389.159 159.035 353.721C109.043 303.729 138.611 254.034 161.864 227.149C204.398 177.969 225.863 182.961 261.425 218.523L298.902 256" stroke="white" stroke-width="16"/>
<path d="M371.838 249.741C394.894 285.584 389.634 318.003 354.197 353.44C304.205 403.432 254.51 373.864 227.625 350.611C178.445 308.077 183.437 286.612 218.999 251.05L256.475 213.574" stroke="white" stroke-width="16"/>
</svg>
